Coordinates
version=1
nRows=15
nColumns=42
inDegrees=yes

Units are S.I. units (second, meters, Newtons, ...)
If the header above contains a line with 'inDegrees', this indicates whether rotational values are in degrees (yes) or radians (no).

endheader
time	pelvis_tilt	pelvis_list	pelvis_rotation	pelvis_tx	pelvis_ty	pelvis_tz	hip_flexion_r	hip_adduction_r	hip_rotation_r	knee_angle_r	knee_adduction_r	knee_angle_r_beta	ankle_angle_r	subtalar_angle_r	mtp_angle_r	hip_flexion_l	hip_adduction_l	hip_rotation_l	knee_angle_l	knee_adduction_l	knee_angle_l_beta	ankle_angle_l	subtalar_angle_l	mtp_angle_l	lumbar_extension	lumbar_bending	lumbar_rotation	arm_flex_r	arm_add_r	arm_rot_r	elbow_flex_r	pro_sup_r	wrist_flex_r	wrist_dev_r	arm_flex_l	arm_add_l	arm_rot_l	elbow_flex_l	pro_sup_l	wrist_flex_l	wrist_dev_l
      0.26000000	      3.01414782	      3.27965109	     -1.15618370	     -0.77045336	      0.85418436	     -0.07326617	     -0.08359382	     -5.75634388	    -27.35085759	     36.89888138	     -7.06713683	      0.64400697	     31.62381801	     34.21025778	     -8.41281787	     28.61179245	      3.89480298	    -18.32374857	     32.72612495	     -8.16216993	      0.57117863	      5.73745649	     18.77794564	     -8.41281787	    -26.26304265	     -1.13752028	     -1.85526705	     23.64870470	    -13.41001188	     23.77607456	     70.40213551	     90.00000001	      0.00000000	      0.00000000	     11.91134829	    -11.23483154	     21.97164829	     53.53034408	     90.00000001	      0.00000000	      0.00000000
      0.27000000	      2.88644454	      3.25792397	     -1.16179431	     -0.76612843	      0.85416575	     -0.07429757	     -0.19958493	     -5.81541578	    -27.27833425	     37.00309607	     -7.11589836	      0.64582586	     31.53430259	     34.20256050	     -8.41015746	     28.63562018	      3.95519105	    -18.39695338	     33.04807326	     -8.28703598	      0.57679769	      5.66758562	     18.78651327	     -8.41015746	    -26.29263486	     -1.24444388	     -1.84957210	     23.52982570	    -13.40637718	     23.77874219	     70.31033326	     90.00000001	      0.00000000	      0.00000000	     11.96570733	    -11.23416137	     21.96111589	     53.51474344	     90.00000001	      0.00000000	      0.00000000
      0.28000000	      2.75324012	      3.22758275	     -1.16359883	     -0.76170865	      0.85415134	     -0.07536500	     -0.28896641	     -5.92420069	    -27.22141232	     37.18979555	     -7.08903737	      0.64908438	     31.29944216	     34.16367887	     -8.40593805	     28.73125133	      3.95602176	    -18.65881600	     33.52197321	     -8.44962010	      0.58506880	      5.58383706	     18.79491730	     -8.40593805	    -26.29176233	     -1.34342265	     -1.83262811	     23.40346363	    -13.42301668	     23.72987669	     70.11368727	     90.00000001	      0.00000000	      0.00000000	     12.06148402	    -11.23877865	     21.92782228	     53.47850773	     90.00000001	      0.00000000	      0.00000000
      0.29000000	      2.62905725	      3.19501196	     -1.17915572	     -0.75725631	      0.85426311	     -0.07643191	     -0.35721915	     -5.99205364	    -27.10194423	     37.39556211	     -7.13825942	      0.65267568	     31.04478940	     34.11815596	     -8.40256984	     28.78902322	      4.00702829	    -18.77991340	     33.91623192	     -8.62380268	      0.59194992	      5.55720917	     18.83175505	     -8.40256984	    -26.32143870	     -1.44180137	     -1.82350798	     23.23784598	    -13.44417747	     23.67379655	     69.90547454	     90.00000001	      0.00000000	      0.00000000	     12.11426279	    -11.24480046	     21.89135340	     53.43553851	     90.00000001	      0.00000000	      0.00000000
      0.30000000	      2.46059569	      3.15314037	     -1.20879556	     -0.75272030	      0.85434664	     -0.07753828	     -0.35698525	     -6.13780404	    -26.99125589	     37.70916047	     -7.04577301	      0.65814901	     30.49140993	     33.95527076	     -8.39599408	     28.91328016	      3.98971188	    -19.01616904	     34.37278483	     -8.75252991	      0.59991827	      5.65364132	     18.88606150	     -8.39599408	    -26.26644317	     -1.52239629	     -1.76854760	     23.11292840	    -13.45205954	     23.49379378	     69.53140043	     90.00000001	      0.00000000	      0.00000000	     12.23128934	    -11.20894982	     21.81652203	     53.36134133	     90.00000001	      0.00000000	      0.00000000
      0.31000000	      2.38696936	      3.11432466	     -1.21037286	     -0.74810448	      0.85467460	     -0.07863772	     -0.44127784	     -6.14363609	    -26.79468455	     37.93746164	     -7.18590071	      0.66213362	     30.28816366	     33.90960117	     -8.39401830	     28.84398449	      4.12204756	    -18.90244600	     34.65162766	     -8.91098487	      0.60478499	      5.69168246	     18.92568531	     -8.39401830	    -26.34549186	     -1.61083552	     -1.80991582	     22.86588679	    -13.50002887	     23.44780576	     69.35232724	     90.00000001	      0.00000000	      0.00000000	     12.23729765	    -11.24880136	     21.77647635	     53.31881073	     90.00000001	      0.00000000	      0.00000000
      0.32000000	      2.19303370	      3.09970572	     -1.26050082	     -0.74351755	      0.85485677	     -0.07979300	     -0.30333091	     -6.33151492	    -26.36189439	     38.48398318	     -6.97761787	      0.67167222	     28.83873604	     33.15651494	     -8.37613035	     28.93939810	      4.20350990	    -18.81256004	     35.06874814	     -8.94683274	      0.61206512	      6.33677458	     18.82926173	     -8.37613035	    -26.26168738	     -1.73489085	     -1.73197154	     22.64905416	    -13.34080662	     22.80681866	     68.50765246	     90.00000001	      0.00000000	      0.00000000	     12.37855341	    -11.14727881	     21.54193579	     53.08936491	     90.00000001	      0.00000000	      0.00000000
      0.33000000	      2.19921947	      3.04206895	     -1.23129682	     -0.73875716	      0.85532972	     -0.08093998	     -0.43761625	     -6.36955116	    -26.15601270	     38.84321809	     -7.04379944	      0.67794205	     28.66411698	     33.07110741	     -8.37359919	     28.76925323	      4.32407880	    -18.58633277	     35.37795123	     -9.03842769	      0.61746173	      6.36927011	     18.83854393	     -8.37359919	    -26.40979375	     -1.80265923	     -1.78713250	     22.32889811	    -13.43704873	     22.73218265	     68.31700362	     90.00000001	      0.00000000	      0.00000000	     12.42134112	    -11.22277828	     21.47670726	     53.05734180	     90.00000001	      0.00000000	      0.00000000
      0.34000000	      2.12454549	      3.10593206	     -1.31212299	     -0.73404329	      0.85572972	     -0.08215420	     -0.35170236	     -6.73729810	    -25.67478197	     39.58965707	     -6.71862208	      0.69096987	     27.37122215	     32.22551430	     -8.35883451	     28.60604170	      4.57242041	    -18.05001876	     35.63873745	     -8.87897645	      0.62201331	      7.08809767	     18.37586017	     -8.35883451	    -26.44320534	     -2.01901597	     -1.65498409	     22.05685208	    -13.41189460	     22.15211557	     67.75307533	     90.00000001	      0.00000000	      0.00000000	     12.57432687	    -11.16653324	     21.26692204	     52.97544512	     90.00000001	      0.00000000	      0.00000000
      0.35000000	      2.06242318	      3.05067557	     -1.27109126	     -0.72931325	      0.85626034	     -0.08338013	     -0.28399115	     -6.78544162	    -24.97433695	     40.22979702	     -6.50282038	      0.70214242	     26.26659460	     31.02888318	     -8.33665800	     28.40412514	      4.73824389	    -17.41619856	     35.86549621	     -8.70839266	      0.62597100	      7.43704241	     17.56009518	     -8.33665800	    -26.53518842	     -2.07143904	     -1.73837852	     21.63952712	    -13.30384855	     21.42566776	     67.20531551	     90.00000001	      0.00000000	      0.00000000	     12.66552419	    -11.16299623	     21.01570734	     52.85289437	     90.00000001	      0.00000000	      0.00000000
      0.36000000	      2.02971278	      3.02538584	     -1.23018733	     -0.72460412	      0.85681227	     -0.08461058	     -0.19887348	     -6.84845470	    -24.13418125	     40.96612130	     -6.26003739	      0.71499370	     25.24655701	     29.54868978	     -8.30096350	     28.18756042	      4.92137085	    -16.69061841	     36.15707715	     -8.44120805	      0.63106004	      7.62175035	     16.51302306	     -8.30096350	    -26.65603371	     -2.16234087	     -1.79644009	     21.29252811	    -13.21604060	     20.60423730	     66.73619019	     90.00000001	      0.00000000	      0.00000000	     12.76686486	    -11.09633339	     20.78114598	     52.76297575	     90.00000001	      0.00000000	      0.00000000
      0.37000000	      2.03304491	      3.03727444	     -1.21564009	     -0.71973540	      0.85732549	     -0.08587883	     -0.04674551	     -7.10161217	    -23.58352982	     41.92897110	     -6.03933734	      0.73179860	     24.17864988	     28.86210297	     -8.28193941	     27.86621302	      5.15145605	    -16.24497629	     36.27982949	     -8.35558677	      0.63320248	      8.06496097	     16.06351800	     -8.28193941	    -26.75157452	     -2.28093111	     -1.81726574	     20.87156994	    -13.33605853	     20.29551227	     66.39239818	     90.00000001	      0.00000000	      0.00000000	     12.86093474	    -11.16123008	     20.68751782	     52.75392381	     90.00000001	      0.00000000	      0.00000000
      0.38000000	      2.14633779	      2.90777233	     -1.12991925	     -0.71473673	      0.85795232	     -0.08707798	     -0.04894753	     -7.02761524	    -23.23997746	     42.66761618	     -6.20231444	      0.74469039	     23.90169750	     28.83643324	     -8.28025326	     27.47935318	      5.22867792	    -16.02209801	     36.48594580	     -8.46733446	      0.63679988	      8.12739783	     16.04603515	     -8.28025326	    -26.97706725	     -2.22609140	     -2.00676382	     20.39618999	    -13.53731838	     20.25254467	     66.17792967	     90.00000001	      0.00000000	      0.00000000	     12.88823768	    -11.28935026	     20.64065464	     52.73060585	     90.00000001	      0.00000000	      0.00000000
      0.39000000	      2.05327580	      2.96139491	     -1.21497649	     -0.71019406	      0.85837593	     -0.08838918	      0.44514441	     -7.39547957	    -21.73345902	     44.13646796	     -5.37211878	      0.77032669	     21.21982315	     25.71811913	     -8.24165629	     27.23602565	      5.48458305	    -15.08003218	     36.65492530	     -7.99330505	      0.63974913	      8.74627899	     14.64412540	     -8.24165629	    -27.01910822	     -2.41295755	     -1.89343663	     20.10095188	    -13.49721043	     19.33855191	     65.38425102	     90.00000001	      0.00000000	      0.00000000	     13.08997096	    -11.24692629	     20.60767517	     52.74078701	     90.00000001	      0.00000000	      0.00000000
      0.40000000	      2.08694319	      3.00173283	     -1.21181774	     -0.70533217	      0.85876872	     -0.08965060	      0.80912337	     -7.71901535	    -21.05236703	     45.48782933	     -5.14797446	      0.79391239	     19.99467226	     25.17557966	     -8.23019120	     26.88954469	      5.73502613	    -14.81754057	     36.77027236	     -8.00213877	      0.64176232	      9.19972006	     14.39928123	     -8.23019120	    -27.13109488	     -2.57820530	     -1.94555112	     19.64616811	    -13.68222248	     19.13391025	     65.05516741	     90.00000001	      0.00000000	      0.00000000	     13.20997951	    -11.39484137	     20.56073902	     52.73666467	     90.00000001	      0.00000000	      0.00000000
